# xmcd
#
# Track frame offsets:
#	150
#	17865
#	35230
#	52404
#	65610
#	76793
#	94894
#	110461
#	126125
#	145171
#
# Disc length: 2176 seconds
#
# Revision: 1
# Processed by: cddbd v1.5.2PL0 Copyright (c) Steve Scherf et al.
# Submitted via: audiograbber 1.83.01
#
DISCID=90087e0a
DTITLE=Tim Williams - Even Though
DYEAR=2003
DGENRE=Country
TTITLE0=Even Though
TTITLE1=There You Go
TTITLE2=What We Have Now
TTITLE3=Lay Down Beside Me
TTITLE4=All I Really Think About Is You
TTITLE5=It Only Rains On Me
TTITLE6=Crack In The Dam
TTITLE7=The Last Thing To Go
TTITLE8=This Time I'm In It For Love
TTITLE9=I'm No Superman
EXTD=
EXTT0=
EXTT1=
EXTT2=
EXTT3=
EXTT4=
EXTT5=
EXTT6=
EXTT7=
EXTT8=
EXTT9=
PLAYORDER=
